<?xml version="1.0" encoding="UTF-8"?>
<svg width="16px" height="16px" viewBox="0 0 16 16" version="1.1" xmlns="http://www.w3.org/2000/svg" xmlns:xlink="http://www.w3.org/1999/xlink">
    <title>Select</title>
    <g id="©️图标库" stroke="none" stroke-width="1" fill="none" fill-rule="evenodd">
        <g id="Select" fill-rule="nonzero" opacity=".4">
            <rect id="矩形" x="0" y="0" width="16" height="16"></rect>
            <path d="M8.15466667,14.4183333 C8.12485019,14.4697337 8.06992239,14.5013714 8.0105,14.5013714 C7.95107761,14.5013714 7.89614981,14.4697337 7.86633333,14.4183333 L5.156,9.75033333 C5.12608718,9.69879825 5.12596317,9.63521415 5.15567474,9.58356279 C5.18538631,9.53191142 5.24041277,9.50005169 5.3,9.5 L10.721,9.5 C10.7805872,9.50005169 10.8356137,9.53191142 10.8653253,9.58356279 C10.8950368,9.63521415 10.8949128,9.69879825 10.865,9.75033333 L8.15466667,14.4183333 L8.15466667,14.4183333 Z" id="路径" fill="#000000"></path>
            <path d="M7.86666667,1.583 C7.89652574,1.53176138 7.95136271,1.50024864 8.01066667,1.50024864 C8.06997064,1.50024864 8.12480761,1.53176138 8.15466667,1.583 L10.865,6.251 C10.8949128,6.30253508 10.8950368,6.36611918 10.8653253,6.41777054 C10.8356137,6.46942191 10.7805872,6.50128164 10.721,6.50133333 L5.3,6.50133333 C5.24051605,6.50121292 5.18560526,6.46939886 5.15591544,6.41785403 C5.12622562,6.36630921 5.12625784,6.30284798 5.156,6.25133333 L7.86633333,1.583 L7.86666667,1.583 Z" id="路径" fill="#000000"></path>
        </g>
    </g>
</svg>